<svg version="1" xmlns="http://www.w3.org/2000/svg" width="682.667" height="682.667" viewBox="0 0 512.000000 512.000000"><path d="M240 24.6c-23.8 3-46.5 10.5-65 21.6-53.9 32.3-83.8 90.9-78.1 152.6 3.6 39.1 17.1 69.4 47.5 106.7 5.8 7.1 14.5 17.8 19.4 23.8 11.1 13.7 18.5 25.9 21.9 36.1 2.5 7.8 2.6 9.2 3.3 38.6.8 33.7 1 35.4 7.8 48.5 4.7 9 17.3 21.9 26.2 26.8 11 6 19.8 8.2 33 8.2 19.4 0 33.5-5.8 47.1-19.4 12.5-12.6 18.7-26.2 19.5-43.1.2-5.2.6-19.2.8-31 .5-23.9 1-26.9 7.6-40 4.5-8.9 12-19.2 27.1-37.3 27.9-33.3 39.2-51.4 48.4-77.7 9.5-27.4 11.5-59.8 5.5-88.6-8.9-42.7-36.2-80.8-74.5-103.9-15-9.1-32.6-15.8-51.1-19.6-9.7-1.9-38-3.3-46.4-2.3zm42.4 26.5c26.8 5.4 49.3 17.5 68.6 36.9 20 19.9 32.7 44.3 37.5 71.6 2 11.7 2 38.2-.1 50.5-4.5 26.5-16.1 50-38.1 77-24.9 30.7-29.9 37.1-34.4 43.9-8.3 12.5-11.4 19.8-16.5 38.8-.3 1-9.6 1.2-44 1l-43.7-.3-1.4-6c-4.2-18.5-13.5-34-37.7-62.8-33.3-39.6-46.1-63.6-50.6-95.2-1.5-10.7-1.2-35 .5-45.1 7.4-42.9 34.3-79.1 73.2-98.8 14.3-7.2 32.5-12.5 48.3-14 8.7-.8 28.6.5 38.4 2.5zM299 407.2c-.1 16.8-1.3 24-5.4 32.4-4.4 8.7-11.2 15.3-20.6 19.8-6 2.9-7.3 3.1-17.5 3.1-10.3 0-11.4-.2-17.7-3.2-9.4-4.4-16-10.9-20.6-20.2l-3.7-7.5-.3-17.8-.4-17.8H299v11.2z"/><path d="M270 225.6c-4.1 2.7-23 21.7-24.6 24.6-1.1 2.2-1.4 8.3-1.4 30.4v27.6l3.3 3.3c5.8 5.8 11.6 5.8 17.4 0l3.3-3.3v-46.8l7.1-6.9c9.7-9.6 12.9-14 12.9-18.2 0-9.3-10.6-15.6-18-10.7z"/></svg>